<svg version="1.1" id="Layer_1" xmlns="http://www.w3.org/2000/svg" xmlns:xlink="http://www.w3.org/1999/xlink" x="0px" y="0px"
     width="100%" viewBox="0 0 500 500" enable-background="new 0 0 500 500" xml:space="preserve">
  <path fill="#FEFEFE" opacity="1.000000" stroke="none"
        d="
        M334.000000,501.000000 
        C222.666687,501.000000 111.833389,501.000000 1.000059,501.000000 
        C1.000040,334.333405 1.000040,167.666794 1.000020,1.000149 
        C167.666565,1.000099 334.333130,1.000099 500.999756,1.000050 
        C500.999847,167.666519 500.999847,334.333038 500.999939,500.999786 
        C445.500000,501.000000 390.000000,501.000000 334.000000,501.000000 
        M372.500000,329.998871 
        C390.832764,329.998871 409.165497,330.003693 427.498260,329.996704 
        C435.922882,329.993500 439.144287,326.773529 439.147461,318.212494 
        C439.164093,273.380463 439.161743,228.548401 439.148743,183.716354 
        C439.146149,174.689789 436.284546,171.840836 427.214905,171.840210 
        C309.718292,171.832123 192.221680,171.831970 74.725067,171.840668 
        C65.660103,171.841339 62.847652,174.673401 62.845711,183.748886 
        C62.836155,228.414261 62.835350,273.079651 62.846039,317.745026 
        C62.848255,327.011597 65.837067,329.997986 75.008537,329.998108 
        C173.839020,329.999329 272.669525,329.998871 372.500000,329.998871 
        M51.000145,207.739594 
        C50.871372,198.028366 47.800671,195.000702 38.077320,194.999435 
        C32.916256,194.998764 27.754259,194.937866 22.594370,195.015823 
        C16.641302,195.105743 12.825333,198.648697 12.807847,204.535629 
        C12.724276,232.671295 12.717879,260.807526 12.811637,288.943115 
        C12.832845,295.307404 16.387930,298.517242 22.910744,298.602264 
        C28.070936,298.669525 33.232697,298.619354 38.393761,298.616119 
        C47.736347,298.610260 50.990150,295.403412 50.995243,286.100067 
        C51.009369,260.294739 51.000134,234.489426 51.000145,207.739594 
        M481.580566,298.528900 
        C486.755127,297.413300 489.197296,294.028748 489.204041,288.916199 
        C489.241150,260.769257 489.265869,232.622055 489.166809,204.475388 
        C489.146118,198.599304 485.291931,195.088013 479.317352,195.015518 
        C473.322357,194.942749 467.325195,194.948044 461.330017,195.013672 
        C455.225098,195.080490 451.088409,198.795837 451.064819,204.809067 
        C450.955017,232.789352 450.947876,260.770569 451.066925,288.750793 
        C451.093079,294.894745 455.073853,298.513733 461.243073,298.595886 
        C467.737366,298.682373 474.233795,298.605530 481.580566,298.528900 
        M176.499924,384.166626 
        C183.490219,384.161224 190.481903,384.239685 197.470413,384.125092 
        C203.553513,384.025391 206.983002,380.565155 207.070618,374.503571 
        C207.162033,368.180328 207.175476,361.853180 207.062088,355.530609 
        C206.956009,349.615509 203.295776,346.005096 197.271454,345.993805 
        C169.310120,345.941467 141.348526,345.937225 113.387222,346.000244 
        C107.437912,346.013641 103.935547,349.656525 103.814034,355.736847 
        C103.700981,361.393494 103.760109,367.054199 103.786415,372.712891 
        C103.825645,381.152252 106.741905,384.142517 115.083206,384.155640 
        C135.222061,384.187378 155.361008,384.166351 176.499924,384.166626 
        M153.500000,156.032684 
        C167.979767,156.032257 182.459702,156.072037 196.939224,156.013275 
        C203.502548,155.986633 207.011642,152.412491 207.083023,145.806686 
        C207.147751,139.815750 207.148895,133.822983 207.081909,127.832092 
        C207.010208,121.421577 203.653473,117.884605 197.308548,117.870476 
        C169.347809,117.808212 141.386765,117.808502 113.426064,117.879303 
        C107.304535,117.894806 103.937302,121.343529 103.817116,127.466415 
        C103.699554,133.455750 103.731201,139.449661 103.795563,145.440506 
        C103.873642,152.708923 107.231537,156.005142 114.552994,156.023224 
        C127.201927,156.054474 139.850983,156.032394 153.500000,156.032684 
        M365.500061,117.833458 
        C345.360809,117.834732 325.221466,117.796974 305.082397,117.859154 
        C298.332489,117.879997 294.979645,121.273415 294.912170,127.934044 
        C294.849792,134.091644 294.824799,140.251770 294.929504,146.408310 
        C295.030609,152.352295 298.645477,155.990829 304.645691,156.003159 
        C332.607483,156.060654 360.569489,156.060532 388.531281,156.002213 
        C394.515381,155.989731 398.061951,152.392319 398.177399,146.345932 
        C398.298065,140.023743 398.295166,133.695328 398.165466,127.373322 
        C398.040436,121.278526 394.645935,117.959908 388.469727,117.870003 
        C381.147888,117.763412 373.823425,117.837616 365.500061,117.833458 
        M383.426422,384.166626 
        C384.425293,384.166504 385.424194,384.171509 386.423035,384.165314 
        C395.413574,384.109558 398.183624,381.307465 398.211578,372.196747 
        C398.228424,366.703125 398.296082,361.207520 398.181793,355.716156 
        C398.055298,349.640259 394.550568,346.012573 388.586182,345.999451 
        C360.618256,345.937897 332.650116,345.938629 304.682190,345.996002 
        C298.488800,346.008698 294.994873,349.713104 294.916534,356.059937 
        C294.848755,361.552826 294.888580,367.047241 294.902100,372.540924 
        C294.923462,381.232513 297.811493,384.150665 306.533661,384.158142 
        C331.838104,384.179840 357.142517,384.166382 383.426422,384.166626 
        z"/>
  <path fill="currentColor" opacity="1.000000" stroke="none"
        d="
        M372.000000,329.998871 
        C272.669525,329.998871 173.839020,329.999329 75.008537,329.998108 
        C65.837067,329.997986 62.848255,327.011597 62.846039,317.745026 
        C62.835350,273.079651 62.836155,228.414261 62.845711,183.748886 
        C62.847652,174.673401 65.660103,171.841339 74.725067,171.840668 
        C192.221680,171.831970 309.718292,171.832123 427.214905,171.840210 
        C436.284546,171.840836 439.146149,174.689789 439.148743,183.716354 
        C439.161743,228.548401 439.164093,273.380463 439.147461,318.212494 
        C439.144287,326.773529 435.922882,329.993500 427.498260,329.996704 
        C409.165497,330.003693 390.832764,329.998871 372.000000,329.998871 
        z"/>
  <path fill="currentColor" opacity="1.000000" stroke="none"
        d="
        M51.000137,208.211853 
        C51.000134,234.489426 51.009369,260.294739 50.995243,286.100067 
        C50.990150,295.403412 47.736347,298.610260 38.393761,298.616119 
        C33.232697,298.619354 28.070936,298.669525 22.910744,298.602264 
        C16.387930,298.517242 12.832845,295.307404 12.811637,288.943115 
        C12.717879,260.807526 12.724276,232.671295 12.807847,204.535629 
        C12.825333,198.648697 16.641302,195.105743 22.594370,195.015823 
        C27.754259,194.937866 32.916256,194.998764 38.077320,194.999435 
        C47.800671,195.000702 50.871372,198.028366 51.000137,208.211853 
        z"/>
  <path fill="currentColor" opacity="1.000000" stroke="none"
        d="
        M481.154938,298.564484 
        C474.233795,298.605530 467.737366,298.682373 461.243073,298.595886 
        C455.073853,298.513733 451.093079,294.894745 451.066925,288.750793 
        C450.947876,260.770569 450.955017,232.789352 451.064819,204.809067 
        C451.088409,198.795837 455.225098,195.080490 461.330017,195.013672 
        C467.325195,194.948044 473.322357,194.942749 479.317352,195.015518 
        C485.291931,195.088013 489.146118,198.599304 489.166809,204.475388 
        C489.265869,232.622055 489.241150,260.769257 489.204041,288.916199 
        C489.197296,294.028748 486.755127,297.413300 481.154938,298.564484 
        z"/>
  <path fill="currentColor" opacity="1.000000" stroke="none"
        d="
        M175.999908,384.166626 
        C155.361008,384.166351 135.222061,384.187378 115.083206,384.155640 
        C106.741905,384.142517 103.825645,381.152252 103.786415,372.712891 
        C103.760109,367.054199 103.700981,361.393494 103.814034,355.736847 
        C103.935547,349.656525 107.437912,346.013641 113.387222,346.000244 
        C141.348526,345.937225 169.310120,345.941467 197.271454,345.993805 
        C203.295776,346.005096 206.956009,349.615509 207.062088,355.530609 
        C207.175476,361.853180 207.162033,368.180328 207.070618,374.503571 
        C206.983002,380.565155 203.553513,384.025391 197.470413,384.125092 
        C190.481903,384.239685 183.490219,384.161224 175.999908,384.166626 
        z"/>
  <path fill="currentColor" opacity="1.000000" stroke="none"
        d="
        M153.000000,156.032684 
        C139.850983,156.032394 127.201927,156.054474 114.552994,156.023224 
        C107.231537,156.005142 103.873642,152.708923 103.795563,145.440506 
        C103.731201,139.449661 103.699554,133.455750 103.817116,127.466415 
        C103.937302,121.343529 107.304535,117.894806 113.426064,117.879303 
        C141.386765,117.808502 169.347809,117.808212 197.308548,117.870476 
        C203.653473,117.884605 207.010208,121.421577 207.081909,127.832092 
        C207.148895,133.822983 207.147751,139.815750 207.083023,145.806686 
        C207.011642,152.412491 203.502548,155.986633 196.939224,156.013275 
        C182.459702,156.072037 167.979767,156.032257 153.000000,156.032684 
        z"/>
  <path fill="currentColor" opacity="1.000000" stroke="none"
        d="
        M366.000092,117.833458 
        C373.823425,117.837616 381.147888,117.763412 388.469727,117.870003 
        C394.645935,117.959908 398.040436,121.278526 398.165466,127.373322 
        C398.295166,133.695328 398.298065,140.023743 398.177399,146.345932 
        C398.061951,152.392319 394.515381,155.989731 388.531281,156.002213 
        C360.569489,156.060532 332.607483,156.060654 304.645691,156.003159 
        C298.645477,155.990829 295.030609,152.352295 294.929504,146.408310 
        C294.824799,140.251770 294.849792,134.091644 294.912170,127.934044 
        C294.979645,121.273415 298.332489,117.879997 305.082397,117.859154 
        C325.221466,117.796974 345.360809,117.834732 366.000092,117.833458 
        z"/>
  <path fill="currentColor" opacity="1.000000" stroke="none"
        d="
        M382.936707,384.166687 
        C357.142517,384.166382 331.838104,384.179840 306.533661,384.158142 
        C297.811493,384.150665 294.923462,381.232513 294.902100,372.540924 
        C294.888580,367.047241 294.848755,361.552826 294.916534,356.059937 
        C294.994873,349.713104 298.488800,346.008698 304.682190,345.996002 
        C332.650116,345.938629 360.618256,345.937897 388.586182,345.999451 
        C394.550568,346.012573 398.055298,349.640259 398.181793,355.716156 
        C398.296082,361.207520 398.228424,366.703125 398.211578,372.196747 
        C398.183624,381.307465 395.413574,384.109558 386.423035,384.165314 
        C385.424194,384.171509 384.425293,384.166504 382.936707,384.166687 
        z"/>
</svg>